<mxfile host="65bd71144e">
    <diagram id="RzJH0hmxB5S2ClgRXe7-" name="Page-1">
        <mxGraphModel dx="3185" dy="2707" grid="1" gridSize="10" guides="1" tooltips="1" connect="1" arrows="1" fold="1" page="1" pageScale="1" pageWidth="827" pageHeight="1169" math="0" shadow="0">
            <root>
                <mxCell id="0"/>
                <mxCell id="1" parent="0"/>
                <mxCell id="2" value="&lt;h1&gt;&lt;font face=&quot;Operator Mono&quot;&gt;Meta Programador o que eu devo estudar&lt;/font&gt;&lt;/h1&gt;" style="text;html=1;strokeColor=none;fillColor=none;align=center;verticalAlign=middle;whiteSpace=wrap;rounded=0;" parent="1" vertex="1">
                    <mxGeometry x="-80" y="80" width="750" height="80" as="geometry"/>
                </mxCell>
                <mxCell id="11" value="" style="edgeStyle=none;html=1;fontFamily=Operator Mono;fontSource=https%3A%2F%2Ffonts.googleapis.com%2Fcss%3Ffamily%3DOperator%2BMono;fontColor=#FFFFFF;" parent="1" source="3" target="10" edge="1">
                    <mxGeometry relative="1" as="geometry"/>
                </mxCell>
                <mxCell id="3" value="&lt;h1&gt;&lt;font data-font-src=&quot;https://fonts.googleapis.com/css?family=Operator+Mono&quot; face=&quot;Operator Mono&quot;&gt;Html&lt;/font&gt;&lt;/h1&gt;&lt;p style=&quot;text-align: justify;&quot;&gt;&lt;font face=&quot;Operator Mono&quot;&gt;A linguagem de marcação utilizada para web.&lt;/font&gt;&lt;/p&gt;" style="text;html=1;strokeColor=default;fillColor=#286a15;spacing=5;spacingTop=-20;whiteSpace=wrap;overflow=hidden;rounded=1;sketch=1;curveFitting=1;jiggle=2;" parent="1" vertex="1">
                    <mxGeometry y="240" width="190" height="100" as="geometry"/>
                </mxCell>
                <mxCell id="6" value="&lt;h1&gt;&lt;font face=&quot;Operator Mono&quot;&gt;css&lt;/font&gt;&lt;/h1&gt;&lt;p style=&quot;text-align: justify;&quot;&gt;&lt;font face=&quot;Operator Mono&quot;&gt;A linguagem de estilo para arquivos html.&lt;/font&gt;&lt;/p&gt;" style="text;html=1;strokeColor=#A50040;fillColor=#d80073;spacing=5;spacingTop=-20;whiteSpace=wrap;overflow=hidden;rounded=1;sketch=1;curveFitting=1;jiggle=2;fontColor=#ffffff;" parent="1" vertex="1">
                    <mxGeometry y="400" width="190" height="100" as="geometry"/>
                </mxCell>
                <mxCell id="8" value="&lt;h1&gt;&lt;font color=&quot;#ffffff&quot; face=&quot;Operator Mono&quot;&gt;javascript&lt;/font&gt;&lt;/h1&gt;&lt;p style=&quot;text-align: justify;&quot;&gt;&lt;font color=&quot;#ffffff&quot; face=&quot;Operator Mono&quot;&gt;A linguagem de programação que da vida e dinamicidade aos arquivos html.&lt;/font&gt;&lt;/p&gt;" style="text;html=1;strokeColor=#B09500;fillColor=#e3c800;spacing=5;spacingTop=-20;whiteSpace=wrap;overflow=hidden;rounded=1;sketch=1;curveFitting=1;jiggle=2;fontColor=#000000;" parent="1" vertex="1">
                    <mxGeometry y="560" width="190" height="100" as="geometry"/>
                </mxCell>
                <mxCell id="16" value="" style="edgeStyle=none;html=1;" parent="1" source="10" target="15" edge="1">
                    <mxGeometry relative="1" as="geometry"/>
                </mxCell>
                <mxCell id="10" value="&lt;h1&gt;&lt;font face=&quot;Operator Mono&quot;&gt;Estrutura de tags&lt;/font&gt;&lt;/h1&gt;&lt;p style=&quot;text-align: justify;&quot;&gt;&lt;font face=&quot;Operator Mono&quot;&gt;A estruturação correta de um tags&lt;/font&gt;&lt;span style=&quot;font-family: &amp;quot;Operator Mono&amp;quot;; background-color: initial;&quot;&gt;&amp;nbsp;html é importe para que o arquivo tenha uma semantica e possa ser facilmente compreendedio pelo navegador e pelos algoritmos do google .&lt;/span&gt;&lt;/p&gt;" style="text;html=1;strokeColor=default;fillColor=#286a15;spacing=5;spacingTop=-20;whiteSpace=wrap;overflow=hidden;rounded=1;sketch=1;curveFitting=1;jiggle=2;" parent="1" vertex="1">
                    <mxGeometry x="280" y="215" width="290" height="150" as="geometry"/>
                </mxCell>
                <mxCell id="20" value="" style="edgeStyle=none;html=1;" parent="1" source="15" target="19" edge="1">
                    <mxGeometry relative="1" as="geometry"/>
                </mxCell>
                <mxCell id="21" value="" style="edgeStyle=none;html=1;" parent="1" source="15" target="19" edge="1">
                    <mxGeometry relative="1" as="geometry"/>
                </mxCell>
                <mxCell id="22" value="" style="edgeStyle=none;html=1;" parent="1" source="15" target="19" edge="1">
                    <mxGeometry relative="1" as="geometry"/>
                </mxCell>
                <mxCell id="23" value="" style="edgeStyle=none;html=1;" parent="1" source="15" target="19" edge="1">
                    <mxGeometry relative="1" as="geometry"/>
                </mxCell>
                <mxCell id="24" value="" style="edgeStyle=none;html=1;" parent="1" source="15" target="19" edge="1">
                    <mxGeometry relative="1" as="geometry"/>
                </mxCell>
                <mxCell id="26" value="" style="edgeStyle=none;html=1;" parent="1" source="15" target="25" edge="1">
                    <mxGeometry relative="1" as="geometry"/>
                </mxCell>
                <mxCell id="27" value="" style="edgeStyle=none;html=1;" parent="1" source="15" target="25" edge="1">
                    <mxGeometry relative="1" as="geometry"/>
                </mxCell>
                <mxCell id="29" value="" style="edgeStyle=none;html=1;" parent="1" source="15" target="28" edge="1">
                    <mxGeometry relative="1" as="geometry"/>
                </mxCell>
                <mxCell id="31" value="" style="edgeStyle=none;html=1;" edge="1" parent="1" source="15" target="30">
                    <mxGeometry relative="1" as="geometry"/>
                </mxCell>
                <mxCell id="15" value="&lt;h1&gt;&lt;font face=&quot;Operator Mono&quot;&gt;Principais Problemas que podemos resolver no html&amp;nbsp;&lt;/font&gt;&lt;/h1&gt;&lt;p style=&quot;text-align: justify;&quot;&gt;&lt;span style=&quot;font-family: &amp;quot;Operator Mono&amp;quot;; background-color: initial;&quot;&gt;Problemas como exibição de imagens, videos, audios ou contrução de canvas e até mesmo svgs.&lt;/span&gt;&lt;/p&gt;" style="text;html=1;strokeColor=default;fillColor=#286a15;spacing=5;spacingTop=-20;whiteSpace=wrap;overflow=hidden;rounded=1;sketch=1;curveFitting=1;jiggle=2;" parent="1" vertex="1">
                    <mxGeometry x="650" y="215" width="370" height="150" as="geometry"/>
                </mxCell>
                <mxCell id="19" value="&lt;h1&gt;&lt;font face=&quot;Operator Mono&quot;&gt;Listar Elementos&amp;nbsp;&lt;/font&gt;&lt;/h1&gt;&lt;p style=&quot;text-align: justify;&quot;&gt;&lt;span style=&quot;font-family: &amp;quot;Operator Mono&amp;quot;; background-color: initial;&quot;&gt;No html podemos fazer listagem de itens ordenadas e não ordenadas.&lt;/span&gt;&lt;/p&gt;" style="text;html=1;strokeColor=default;fillColor=#286a15;spacing=5;spacingTop=-20;whiteSpace=wrap;overflow=hidden;rounded=1;sketch=1;curveFitting=1;jiggle=2;" parent="1" vertex="1">
                    <mxGeometry x="920" y="-60" width="370" height="105" as="geometry"/>
                </mxCell>
                <mxCell id="25" value="&lt;h1&gt;&lt;font face=&quot;Operator Mono&quot;&gt;Construção de tabelas&amp;nbsp;&lt;/font&gt;&lt;/h1&gt;&lt;p style=&quot;text-align: justify;&quot;&gt;&lt;span style=&quot;font-family: &amp;quot;Operator Mono&amp;quot;; background-color: initial;&quot;&gt;No html podemos fazer tabelas contendo linhas e colunas que nem nas planilhas do excel.&lt;/span&gt;&lt;/p&gt;" style="text;html=1;strokeColor=default;fillColor=#286a15;spacing=5;spacingTop=-20;whiteSpace=wrap;overflow=hidden;rounded=1;sketch=1;curveFitting=1;jiggle=2;" parent="1" vertex="1">
                    <mxGeometry x="1120" y="60" width="370" height="100" as="geometry"/>
                </mxCell>
                <mxCell id="28" value="&lt;h1&gt;&lt;font face=&quot;Operator Mono&quot;&gt;Criando Formularios&amp;nbsp;&lt;/font&gt;&lt;/h1&gt;&lt;p style=&quot;text-align: justify;&quot;&gt;&lt;span style=&quot;font-family: &amp;quot;Operator Mono&amp;quot;; background-color: initial;&quot;&gt;A coisa mais utilizada em arquivos html são os formularios eles tem uma tag propria forms no qual vc pode usar muitos imputs dentro . 1 formulario consiste em muitos input e 1 button typo submit.&lt;/span&gt;&lt;/p&gt;" style="text;html=1;strokeColor=default;fillColor=#286a15;spacing=5;spacingTop=-20;whiteSpace=wrap;overflow=hidden;rounded=1;sketch=1;curveFitting=1;jiggle=2;" parent="1" vertex="1">
                    <mxGeometry x="1190" y="180" width="370" height="115" as="geometry"/>
                </mxCell>
                <mxCell id="30" value="&lt;h1&gt;&lt;font face=&quot;Operator Mono&quot;&gt;Principais Problemas que podemos resolver no html&amp;nbsp;&lt;/font&gt;&lt;/h1&gt;&lt;p style=&quot;text-align: justify;&quot;&gt;&lt;span style=&quot;font-family: &amp;quot;Operator Mono&amp;quot;; background-color: initial;&quot;&gt;Problemas como exibição de imagens, videos, audios ou contrução de canvas e até mesmo svgs.&lt;/span&gt;&lt;/p&gt;" style="text;html=1;strokeColor=default;fillColor=#286a15;spacing=5;spacingTop=-20;whiteSpace=wrap;overflow=hidden;rounded=1;sketch=1;curveFitting=1;jiggle=2;" vertex="1" parent="1">
                    <mxGeometry x="1190" y="310" width="370" height="150" as="geometry"/>
                </mxCell>
            </root>
        </mxGraphModel>
    </diagram>
</mxfile>